<svg width="113" height="35" viewBox="0 0 113 35" fill="none" xmlns="http://www.w3.org/2000/svg">
<g filter="url(#filter0_d_82_435)">
<path d="M24.1096 28.7114C23.8475 28.7114 23.6681 28.7043 23.5715 28.6899C23.6681 27.8582 24.0889 25.7501 24.834 22.3657C25.5929 18.9669 25.9723 16.8158 25.9723 15.9124C25.9723 15.7403 25.8757 15.518 25.6825 15.2455C25.4894 14.9587 25.2962 14.7221 25.1031 14.5357L24.834 14.2345L24.8961 13.8903C26.7863 13.5175 28.787 13.3311 30.898 13.3311C33.4367 13.3311 34.7061 14.3708 34.7061 16.4502C34.7061 17.4683 34.4577 18.4005 33.961 19.2466C33.4781 20.0783 32.7193 20.7308 31.6844 21.2041C32.4571 23.8858 33.1194 25.621 33.6713 26.4098C33.9196 26.7396 34.1128 26.9045 34.2508 26.9045C34.4991 26.9045 34.8855 26.7754 35.4098 26.5173L35.6581 26.3882L36.1341 27.1841C35.6236 27.6717 35.0303 28.0733 34.3543 28.3888C33.692 28.7043 33.0642 28.862 32.4709 28.862C31.8914 28.862 31.4085 28.6039 31.0222 28.0876C30.6496 27.557 30.3047 26.7826 29.9874 25.7644C29.6838 24.7462 29.3734 23.4412 29.056 21.8494C28.6145 21.8781 28.2765 21.8924 28.0419 21.8924C27.3382 25.033 26.9519 27.1555 26.8829 28.2597C26.2896 28.5609 25.3652 28.7114 24.1096 28.7114ZM28.8491 20.4297C29.6769 20.4297 30.3254 20.0497 30.7945 19.2896C31.2774 18.5152 31.5189 17.5974 31.5189 16.5362C31.5189 15.9769 31.4223 15.5252 31.2291 15.181C31.036 14.8368 30.7462 14.6647 30.3599 14.6647C30.1943 14.6647 29.9943 14.6934 29.7597 14.7508C29.5389 14.7938 29.4286 14.8225 29.4286 14.8368C29.2078 16.3139 28.8491 18.1782 28.3524 20.4297H28.8491Z" fill="black"/>
<path d="M36.2958 24.8825C36.2958 23.0899 36.8132 21.6773 37.848 20.6448C38.8966 19.5979 40.0832 19.0745 41.4078 19.0745C42.2218 19.0745 42.891 19.2824 43.4153 19.6983C43.9396 20.1142 44.2018 20.6735 44.2018 21.3762C44.2018 22.0645 44.0293 22.6453 43.6844 23.1186C43.3532 23.5918 42.9462 23.9575 42.4633 24.2156C41.4837 24.7176 40.5868 25.033 39.7728 25.1621L39.2761 25.2266C39.3727 26.5747 39.9039 27.2487 40.8697 27.2487C41.2008 27.2487 41.5527 27.1626 41.9252 26.9905C42.2977 26.8185 42.5875 26.6464 42.7944 26.4743L43.1049 26.2162L43.6016 26.9045C43.4912 27.0623 43.2704 27.2702 42.9393 27.5283C42.6082 27.7865 42.2977 28.0016 42.008 28.1737C41.2077 28.6326 40.3316 28.862 39.3796 28.862C38.4275 28.862 37.6756 28.5107 37.1237 27.808C36.5718 27.1053 36.2958 26.1301 36.2958 24.8825ZM39.2554 24.1726C39.959 24.0435 40.5178 23.7352 40.9318 23.2476C41.3457 22.76 41.5527 22.1291 41.5527 21.3547C41.5527 20.5803 41.3319 20.1931 40.8904 20.1931C40.3661 20.1931 39.959 20.6591 39.6693 21.5913C39.3933 22.5091 39.2554 23.3695 39.2554 24.1726Z" fill="black"/>
<path d="M46.6525 19.0745C47.2596 19.0745 47.708 19.2036 47.9977 19.4617C48.3013 19.7198 48.4531 20.2504 48.4531 21.0535C48.4531 21.4837 48.3289 22.3657 48.0805 23.6994C47.8322 25.0187 47.708 25.8218 47.708 26.1086C47.708 26.6822 47.8184 26.969 48.0391 26.969C48.5634 26.969 49.136 26.5675 49.7569 25.7644C50.3916 24.947 50.7227 24.2658 50.7503 23.7209L49.343 22.086C49.3982 21.4694 49.5431 20.9101 49.7776 20.4082C50.0122 19.9063 50.2329 19.5549 50.4399 19.3541L50.7296 19.0745C51.3229 19.0745 51.7713 19.2394 52.0749 19.5692C52.3784 19.8991 52.5302 20.2863 52.5302 20.7308C52.5302 21.8638 52.2612 23.0612 51.7231 24.3232C51.185 25.5852 50.4675 26.6607 49.5707 27.5498C48.6738 28.4246 47.7632 28.862 46.8388 28.862C46.2593 28.862 45.8108 28.6756 45.4935 28.3027C45.19 27.9299 45.0382 27.4423 45.0382 26.84C45.0382 26.2233 45.0796 25.3987 45.1624 24.3662C45.2589 23.3337 45.3072 22.3083 45.3072 21.2901C45.3072 21.0607 45.2244 20.7882 45.0589 20.4727C44.9071 20.1572 44.7484 19.9063 44.5829 19.7198L44.645 19.4617C45.39 19.2036 46.0592 19.0745 46.6525 19.0745Z" fill="black"/>
<path d="M52.7073 24.8825C52.7073 23.0899 53.2247 21.6773 54.2595 20.6448C55.3081 19.5979 56.4947 19.0745 57.8192 19.0745C58.6333 19.0745 59.3024 19.2824 59.8268 19.6983C60.3511 20.1142 60.6132 20.6735 60.6132 21.3762C60.6132 22.0645 60.4407 22.6453 60.0958 23.1186C59.7647 23.5918 59.3576 23.9575 58.8747 24.2156C57.8951 24.7176 56.9983 25.033 56.1842 25.1621L55.6875 25.2266C55.7841 26.5747 56.3153 27.2487 57.2811 27.2487C57.6123 27.2487 57.9641 27.1626 58.3366 26.9905C58.7092 26.8185 58.9989 26.6464 59.2059 26.4743L59.5163 26.2162L60.013 26.9045C59.9026 27.0623 59.6819 27.2702 59.3507 27.5283C59.0196 27.7865 58.7092 28.0016 58.4194 28.1737C57.6192 28.6326 56.743 28.862 55.791 28.862C54.839 28.862 54.087 28.5107 53.5351 27.808C52.9832 27.1053 52.7073 26.1301 52.7073 24.8825ZM55.6668 24.1726C56.3705 24.0435 56.9293 23.7352 57.3432 23.2476C57.7571 22.76 57.9641 22.1291 57.9641 21.3547C57.9641 20.5803 57.7433 20.1931 57.3018 20.1931C56.7775 20.1931 56.3705 20.6591 56.0807 21.5913C55.8048 22.5091 55.6668 23.3695 55.6668 24.1726Z" fill="black"/>
<path d="M67.5343 19.3326C67.5067 19.6911 67.3894 20.107 67.1825 20.5803C66.6582 20.5229 66.1615 20.4942 65.6923 20.4942H65.3198C64.6851 23.6922 64.3678 25.6855 64.3678 26.4743C64.3678 26.8902 64.4506 27.0981 64.6161 27.0981C64.7955 27.0981 65.2577 26.9188 66.0028 26.5603L66.3753 27.2702C65.1473 28.3314 64.0091 28.862 62.9604 28.862C62.4775 28.862 62.0774 28.7043 61.7601 28.3888C61.4565 28.0733 61.3048 27.6574 61.3048 27.1411C61.3048 26.6105 61.3599 26.0154 61.4703 25.3557C61.5945 24.696 61.7601 23.893 61.967 22.9465C62.174 21.9857 62.3258 21.2113 62.4223 20.6233C61.9118 20.6663 61.5324 20.7093 61.2841 20.7524C61.2565 20.5803 61.2427 20.3508 61.2427 20.064C61.2427 19.7628 61.2634 19.5191 61.3048 19.3326H62.6086C62.719 18.5582 62.7742 17.8269 62.7742 17.1385L62.7535 16.4717V16.4071C63.8297 16.0199 64.8438 15.8263 65.7958 15.8263C65.851 16.1131 65.8786 16.4717 65.8786 16.9019C65.8786 17.3321 65.7613 18.1424 65.5268 19.3326H67.5343Z" fill="black"/>
<path d="M67.7762 28.6684H67.6313C67.6037 28.5537 67.5899 28.2955 67.5899 27.894C67.5899 27.4781 67.7762 26.3739 68.1487 24.5813C68.5213 22.7887 68.7075 21.7634 68.7075 21.5052C68.7075 21.0607 68.5144 20.5731 68.128 20.0425L67.9418 19.7844L67.9625 19.5047C68.7075 19.2896 69.901 19.1821 71.5429 19.1821C71.7085 19.5549 71.7913 20.0783 71.7913 20.7524C71.943 20.4942 72.2604 20.15 72.7433 19.7198C73.2262 19.2896 73.7229 19.0745 74.2334 19.0745C74.9785 19.0745 75.351 19.7485 75.351 21.0965C75.282 21.1826 75.1854 21.2973 75.0613 21.4407C74.9509 21.5698 74.7163 21.7562 74.3576 22C74.0127 22.2438 73.6746 22.3944 73.3435 22.4517C73.3297 22.4517 73.2124 22.2581 72.9916 21.8709C72.7709 21.4837 72.6053 21.2901 72.4949 21.2901C72.15 21.4192 71.8464 21.6343 71.5843 21.9355C70.9496 24.904 70.6323 26.8256 70.6323 27.7004C70.6323 28.0159 70.6392 28.2382 70.653 28.3673C70.1701 28.568 69.2111 28.6684 67.7762 28.6684Z" fill="black"/>
<path d="M79.1851 20.4082C79.1851 21.0105 78.9989 22.0502 78.6263 23.5273C78.2538 24.99 78.0675 25.9508 78.0675 26.4098C78.0675 26.8543 78.1296 27.0766 78.2538 27.0766C78.3366 27.0766 78.6539 26.9404 79.2058 26.6679L79.4542 26.5388L79.806 27.2917C79.6818 27.4064 79.5163 27.5498 79.3093 27.7219C79.1024 27.894 78.716 28.1306 78.1503 28.4318C77.5846 28.7186 77.0603 28.862 76.5774 28.862C76.0945 28.862 75.7151 28.7114 75.4391 28.4103C75.1632 28.0948 75.0252 27.6789 75.0252 27.1626C75.0252 26.632 75.1977 25.6999 75.5426 24.3662C75.8875 23.0182 76.06 22.1434 76.06 21.7419C76.06 21.1396 75.8806 20.5731 75.5219 20.0425L75.3356 19.7844L75.3563 19.5047C76.0876 19.2896 77.2742 19.1821 78.9161 19.1821C79.0955 19.3972 79.1851 19.8059 79.1851 20.4082ZM76.8258 16.8373C76.5498 16.5505 76.4118 16.1705 76.4118 15.6973C76.4118 15.224 76.5981 14.8081 76.9706 14.4496C77.357 14.0911 77.7985 13.9119 78.2952 13.9119C78.7919 13.9119 79.1782 14.0553 79.4542 14.3421C79.7301 14.6289 79.8681 15.0089 79.8681 15.4822C79.8681 15.9411 79.6681 16.3498 79.2679 16.7083C78.8816 17.0668 78.447 17.2461 77.9641 17.2461C77.4811 17.2461 77.1017 17.1098 76.8258 16.8373Z" fill="black"/>
<path d="M86.7074 19.6983C86.735 19.6696 86.8109 19.4832 86.9351 19.139C87.5835 19.139 88.4528 19.3398 89.5428 19.7413C89.1978 20.9316 88.9219 22.1793 88.7149 23.4843C88.508 24.7749 88.4045 25.6999 88.4045 26.2592C88.4045 26.8041 88.4597 27.0766 88.5701 27.0766C88.6528 27.0766 88.9564 26.9404 89.4807 26.6679L89.729 26.5388L90.1016 27.2917C89.9774 27.4064 89.8118 27.5498 89.6049 27.7219C89.4117 27.894 89.0392 28.1306 88.4873 28.4318C87.9354 28.7186 87.4387 28.862 86.9971 28.862C86.1417 28.862 85.645 28.4605 85.507 27.6574C84.624 28.4605 83.8237 28.862 83.1063 28.862C82.4026 28.862 81.8024 28.5752 81.3057 28.0016C80.8228 27.4279 80.5813 26.5245 80.5813 25.2912C80.5813 23.3695 80.9608 21.8566 81.7196 20.7524C82.4785 19.6338 83.396 19.0745 84.4722 19.0745C85.2449 19.0745 85.9899 19.2824 86.7074 19.6983ZM84.348 27.0336C84.6792 27.0336 85.0517 26.8973 85.4656 26.6249C85.5622 24.6028 85.8864 22.6023 86.4383 20.6233C86.0244 20.4369 85.6726 20.3436 85.3828 20.3436C84.8861 20.3436 84.4584 20.8527 84.0997 21.8709C83.7547 22.8748 83.5823 23.9862 83.5823 25.2051C83.5823 26.4241 83.8375 27.0336 84.348 27.0336Z" fill="black"/>
</g>
<g filter="url(#filter1_d_82_435)">
<path d="M9.08081 2.47388C9.68876 2.4739 10.2118 2.56406 10.6501 2.74341C11.1026 2.90898 11.5835 3.1574 12.0925 3.48853C12.4174 3.69521 12.6577 3.79886 12.8132 3.79907C12.997 3.79907 13.1528 3.66753 13.28 3.40552L13.6414 2.63989H14.3406V8.59985H13.6833C13.1885 6.84776 12.5518 5.50287 11.7742 4.5647C11.0106 3.61275 10.113 3.13606 9.08081 3.13599C8.21823 3.13599 7.54597 3.44674 7.06519 4.06763C6.59865 4.67467 6.36601 5.68879 6.36597 7.10962V13.3186C6.36597 15.9677 7.1435 17.2922 8.69897 17.2922C9.43416 17.2922 10.0351 16.989 10.5017 16.3821C10.9683 15.775 11.2019 15.0643 11.2019 14.2502V11.4153C11.2019 11.2221 11.1662 11.0907 11.0955 11.0217C11.0248 10.9528 10.8901 10.9182 10.6921 10.9182H8.82593V10.2561H15.8679V10.9182H14.8503C14.6665 10.9182 14.5319 10.9527 14.447 11.0217C14.3763 11.0907 14.3406 11.2221 14.3406 11.4153V17.8518H13.6619L13.1531 15.968C13.1107 15.8302 13.0473 15.713 12.9626 15.6165C12.8779 15.5062 12.7714 15.4505 12.6443 15.4504C12.3898 15.4504 12.1699 15.5953 11.9861 15.885C11.6326 16.4093 11.1738 16.886 10.6082 17.3137C10.0426 17.7414 9.40593 17.9553 8.69897 17.9553C7.49702 17.9553 6.44285 17.6033 5.53784 16.8997C4.64705 16.196 3.96196 15.257 3.4812 14.0842C3.00048 12.8977 2.75952 11.6076 2.75952 10.2141C2.75957 8.8345 3.02886 7.55099 3.56616 6.3645C4.10349 5.17818 4.85279 4.2331 5.81421 3.52954C6.77575 2.82592 7.86476 2.47388 9.08081 2.47388ZM21.8435 7.52368C22.7061 7.52368 23.4489 7.82773 24.071 8.43481C24.6931 9.02809 25.1036 9.81465 25.3015 10.7942C25.3829 11.1576 25.4277 11.6892 25.4421 12.3889C25.1694 12.4347 24.8986 12.4843 24.6296 12.5374L23.7058 12.719L23.6794 12.8635H20.2742C20.2742 13.5258 20.2879 14.0504 20.3162 14.4368C20.3445 14.8092 20.4086 15.1748 20.5076 15.5334C20.6348 16.0437 20.875 16.4507 21.2283 16.7542C21.5959 17.0577 22.0209 17.2102 22.5017 17.2102C23.1944 17.2101 23.7533 16.9128 24.1775 16.3196C24.2768 16.1807 24.3653 16.0353 24.446 15.885C24.4758 15.926 24.5072 15.97 24.5388 16.0168L24.5476 16.0305L24.5574 16.0442C24.5679 16.0591 24.5765 16.0738 24.5847 16.0862C24.575 16.259 24.5517 16.4896 24.5134 16.7834C23.9622 17.4811 23.1506 17.8303 22.0769 17.8303C21.2003 17.8303 20.4152 17.603 19.7224 17.1477C19.0437 16.6786 18.5134 16.0503 18.1316 15.2639C17.7499 14.4776 17.5593 13.6151 17.5593 12.677C17.5594 11.7114 17.7499 10.8354 18.1316 10.0491C18.5134 9.26264 19.03 8.64879 19.6804 8.20728C20.3449 7.75202 21.0659 7.52374 21.8435 7.52368ZM86.8035 7.52368C87.5671 7.52368 88.2814 7.75196 88.946 8.20728C89.6105 8.64878 90.141 9.26272 90.5369 10.0491C90.9327 10.8354 91.1306 11.7114 91.1306 12.677C91.1306 13.6428 90.9328 14.5195 90.5369 15.3059C90.141 16.0922 89.6105 16.7129 88.946 17.1682C88.4561 17.4937 87.939 17.6979 87.3953 17.7834C87.2377 17.7691 87.0844 17.76 86.9353 17.76H86.0847C85.5876 17.6638 85.1124 17.4681 84.6609 17.1682C83.9964 16.7129 83.4659 16.0922 83.0701 15.3059C82.6741 14.5195 82.4763 13.6428 82.4763 12.677C82.4764 11.7114 82.6743 10.8354 83.0701 10.0491C83.4659 9.26278 83.9965 8.64877 84.6609 8.20728C85.3255 7.75198 86.0399 7.5237 86.8035 7.52368ZM41.0876 7.52368C41.8512 7.52368 42.5656 7.75196 43.2302 8.20728C43.8948 8.64879 44.4251 9.26265 44.821 10.0491C45.2169 10.8354 45.4148 11.7113 45.4148 12.677C45.4148 13.6428 45.217 14.5195 44.821 15.3059C44.4251 16.0923 43.8948 16.7129 43.2302 17.1682C42.8303 17.4339 42.4121 17.6181 41.9763 17.7239C41.7894 17.7051 41.5998 17.6946 41.408 17.6946C41.0757 17.6946 40.7509 17.7212 40.4343 17.7717C39.9135 17.6806 39.4172 17.4812 38.946 17.1682C38.2815 16.713 37.7511 16.0922 37.3552 15.3059C36.9593 14.5195 36.7605 13.6428 36.7605 12.677C36.7605 11.7113 36.9593 10.8354 37.3552 10.0491C37.7512 9.26262 38.2814 8.64879 38.946 8.20728C39.6105 7.75206 40.3242 7.52375 41.0876 7.52368ZM30.9998 13.3333V14.8928C30.8286 14.7417 30.616 14.6654 30.3601 14.6653C30.1947 14.6653 29.9947 14.694 29.7605 14.7512C29.5397 14.7942 29.4294 14.8228 29.4294 14.8372C29.3097 15.6384 29.148 16.5532 28.947 17.5823H27.3943V17.0852H28.2C28.3271 17.0852 28.4124 17.065 28.4548 17.0237C28.5114 16.9685 28.5398 16.8783 28.5398 16.7542V13.4114C29.3099 13.3575 30.0963 13.3313 30.8982 13.3313C30.9323 13.3313 30.9661 13.3329 30.9998 13.3333ZM53.6218 7.52368C53.9753 7.52369 54.2794 7.56493 54.5339 7.64771C54.7885 7.71669 55.0284 7.82797 55.2546 7.97974C55.6081 8.22804 55.8838 8.57254 56.0818 9.01392C56.2939 9.45544 56.4001 9.91101 56.4001 10.3801V16.7542C56.4001 16.8783 56.4212 16.9685 56.4636 17.0237C56.5202 17.0651 56.6127 17.0852 56.74 17.0852H57.5457V17.5823H52.9216V17.0852H53.6003C53.7276 17.0852 53.8128 17.0651 53.8552 17.0237C53.9118 16.9685 53.9402 16.8783 53.9402 16.7542V9.77954C53.9401 8.71755 53.6147 8.18601 52.9646 8.18579C52.6676 8.18579 52.3562 8.37954 52.031 8.76587C51.7058 9.15216 51.4301 9.66253 51.2039 10.2971C50.9918 10.9318 50.8855 11.608 50.8855 12.3254V16.7542C50.8855 16.8783 50.9066 16.9685 50.949 17.0237C51.0055 17.0651 51.0981 17.0852 51.2253 17.0852H51.9041V17.5823H47.28V17.0852H48.0857C48.2129 17.0852 48.2982 17.0651 48.3406 17.0237C48.3971 16.9685 48.4246 16.8782 48.4246 16.7542V8.59985C48.4245 8.47603 48.3969 8.39323 48.3406 8.35181C48.2982 8.29662 48.2129 8.2688 48.0857 8.2688H47.28V7.77271H50.8855V9.6145L50.9919 9.63501C51.2747 8.98675 51.6348 8.47625 52.073 8.10376C52.5255 7.71743 53.0421 7.52368 53.6218 7.52368ZM62.6716 14.9768C62.5436 15.0184 62.4154 15.0624 62.2869 15.1086L61.3738 15.4377V16.4934L61.3748 16.5149L61.3943 17.1643C61.394 17.3011 61.39 17.4404 61.3845 17.5823H59.0662V17.0852H59.8718C59.9991 17.0852 60.0843 17.0651 60.1267 17.0237C60.1832 16.9685 60.2117 16.8783 60.2117 16.7542V8.59985C60.2116 8.47599 60.1831 8.39322 60.1267 8.35181C60.0843 8.29662 59.9991 8.2688 59.8718 8.2688H59.0662V7.77271H62.6716V14.9768ZM65.8738 17.0852C65.8659 17.2244 65.8483 17.39 65.824 17.5823H65.3425V17.0852H65.8738ZM76.8601 7.52368C77.2135 7.52371 77.5178 7.56495 77.7722 7.64771C78.0267 7.7167 78.2667 7.82802 78.4929 7.97974C78.8463 8.22805 79.1221 8.57256 79.3201 9.01392C79.5322 9.45544 79.6384 9.91101 79.6384 10.3801V12.8098C79.2143 12.6144 78.7534 12.5325 78.2957 12.5325C77.9012 12.5325 77.5273 12.6025 77.1775 12.7307V9.77954C77.1774 8.71733 76.8523 8.18579 76.2019 8.18579C75.9051 8.18592 75.6081 8.37967 75.3113 8.76587C75.0144 9.13836 74.767 9.64878 74.5691 10.2971C74.3853 10.9318 74.2937 11.608 74.2937 12.3254V16.7542C74.2937 16.8783 74.3148 16.9685 74.3572 17.0237C74.4138 17.0649 74.5055 17.0852 74.6326 17.0852H75.3113V17.5823H70.8142V17.0852H71.4929C71.6201 17.0852 71.7053 17.065 71.7478 17.0237C71.8044 16.9685 71.8328 16.8783 71.8328 16.7542V9.40747C71.8328 8.99355 71.7833 8.6895 71.6843 8.49634C71.5853 8.28962 71.3661 8.18587 71.0271 8.18579C70.7301 8.18579 70.4187 8.37954 70.0935 8.76587C69.7683 9.15216 69.4926 9.66254 69.2664 10.2971C69.0543 10.9318 68.948 11.608 68.948 12.3254V16.7542C68.948 16.8783 68.9691 16.9685 69.0115 17.0237C69.068 17.0651 69.1606 17.0852 69.2878 17.0852H69.9666V17.5823H67.2097C67.2388 17.3209 67.2585 17.0932 67.2585 16.9026C67.2585 16.4219 67.2286 15.9683 67.1511 15.5657L66.9363 14.4465H66.488V8.59985C66.488 8.47602 66.4594 8.39322 66.4031 8.35181C66.3607 8.29662 66.2755 8.2688 66.1482 8.2688H65.3425V7.77271H68.948V9.82153L69.0544 9.84204C69.6908 8.29674 70.5746 7.52368 71.7058 7.52368C72.5823 7.52374 73.1907 7.73762 73.53 8.16528C73.8834 8.59289 74.1234 9.13801 74.2507 9.80005H74.3572C74.6117 9.09663 74.958 8.5448 75.3962 8.14478C75.8487 7.73089 76.3369 7.52368 76.8601 7.52368ZM80.7839 17.0852V17.5823H80.3435C80.4967 17.4281 80.6362 17.2634 80.7556 17.0852H80.7839ZM62.7712 17.0442C62.828 17.0715 62.9081 17.0852 63.0115 17.0852H63.8171V17.5823H62.7664L62.7751 17.1389L62.7712 17.0442ZM32.0183 17.0852V17.5823H31.4304C31.4584 17.4206 31.4786 17.255 31.4929 17.0852H32.0183ZM41.0876 8.02075C40.4798 8.0209 40.0555 8.38636 39.8152 9.11743C39.5889 9.84865 39.4763 11.0353 39.4763 12.677C39.4763 14.3185 39.589 15.5053 39.8152 16.2366C40.0555 16.9677 40.4798 17.3341 41.0876 17.3342C41.6957 17.3342 42.1133 16.9678 42.3396 16.2366C42.5799 15.5053 42.7 14.3185 42.7 12.677C42.6999 11.0353 42.58 9.84865 42.3396 9.11743C42.1133 8.38622 41.6957 8.02075 41.0876 8.02075ZM86.8035 8.02075C86.1955 8.0208 85.7714 8.3863 85.531 9.11743C85.3048 9.84865 85.1912 11.0353 85.1912 12.677C85.1912 14.3186 85.3048 15.5053 85.531 16.2366C85.7714 16.9678 86.1955 17.3342 86.8035 17.3342C87.4115 17.3342 87.8292 16.9678 88.0554 16.2366C88.2957 15.5053 88.4158 14.3185 88.4158 12.677C88.4158 11.0353 88.2958 9.84865 88.0554 9.11743C87.8292 8.38617 87.4115 8.02075 86.8035 8.02075ZM78.4763 13.9192C78.8868 13.9506 79.2134 14.0911 79.4548 14.342C79.525 14.415 79.5861 14.4942 79.6384 14.5793V16.2727C79.5438 16.4248 79.4216 16.5708 79.2683 16.7083C78.8821 17.0667 78.4473 17.2462 77.9646 17.2463L77.7878 17.2395C77.5153 17.2191 77.2798 17.1488 77.0808 17.0315C77.0848 17.0284 77.0901 17.027 77.0935 17.0237C77.15 16.9685 77.1775 16.8782 77.1775 16.7542V14.2805C77.5127 14.0356 77.8851 13.9124 78.2957 13.9124L78.4763 13.9192ZM25.4919 14.2297C25.4728 14.4445 25.4391 14.6531 25.3962 14.8567C25.2986 14.7372 25.2008 14.6305 25.1033 14.5364L24.9255 14.3362C24.93 14.3008 24.9364 14.2655 24.9402 14.2297H25.4919ZM21.6316 8.02075C21.1084 8.0208 20.7475 8.37279 20.5496 9.07642C20.3658 9.7663 20.2742 10.8359 20.2742 12.2844H22.989C22.989 10.8358 22.8901 9.7663 22.6921 9.07642C22.5083 8.37275 22.1548 8.02075 21.6316 8.02075ZM33.4607 7.52368C33.9696 7.52369 34.3865 7.70329 34.7117 8.06177C35.0369 8.4205 35.1999 8.87609 35.2 9.42798C35.2 9.93836 35.0514 10.3797 34.7546 10.7522C34.4577 11.1109 34.0895 11.2903 33.6511 11.2903C33.2695 11.2902 32.9441 11.1799 32.6755 10.9592C32.4071 10.7247 32.2732 10.4416 32.2732 10.1106C32.2733 9.77956 32.4427 9.42061 32.782 9.03442C32.9798 8.81384 33.0788 8.65539 33.0789 8.55884C33.0789 8.42086 33.001 8.35181 32.8455 8.35181C32.5627 8.35184 32.2732 8.5523 31.9763 8.95239C31.6936 9.35245 31.4599 9.87634 31.2761 10.5247C31.1469 10.9807 31.0635 11.4574 31.0251 11.9543C30.9829 11.9538 30.9406 11.9514 30.8982 11.9514C30.0986 11.9514 29.3122 11.9777 28.5398 12.0295V8.59985C28.5397 8.47584 28.5114 8.39317 28.4548 8.35181C28.4124 8.29662 28.3272 8.2688 28.2 8.2688H27.3943V7.77271H30.9998V9.82153L31.1062 9.84204C31.3324 9.20755 31.6504 8.66251 32.0603 8.20728C32.4845 7.75196 32.9516 7.52368 33.4607 7.52368ZM43.0818 2.84692C43.3363 2.84692 43.5488 2.92269 43.7185 3.07446C43.8879 3.22613 43.9723 3.42603 43.9724 3.67407C43.9724 4.0466 43.7746 4.37847 43.3787 4.66821L40.5789 6.73755L40.155 6.3645L42.0427 3.50903C42.1982 3.2608 42.3604 3.08806 42.53 2.99146C42.6997 2.89488 42.8838 2.84693 43.0818 2.84692ZM61.3562 2.5979C61.8087 2.5979 62.1842 2.74273 62.4812 3.03247C62.7782 3.32222 62.9265 3.68861 62.9265 4.13013C62.9264 4.55764 62.778 4.92337 62.4812 5.22681C62.1842 5.51655 61.8087 5.66138 61.3562 5.66138C60.918 5.66128 60.5432 5.51646 60.2322 5.22681C59.9354 4.92336 59.7869 4.55766 59.7869 4.13013C59.7869 3.68861 59.9352 3.32222 60.2322 3.03247C60.5432 2.74285 60.9181 2.598 61.3562 2.5979Z" fill="black"/>
</g>
<defs>
<filter id="filter0_d_82_435" x="20.812" y="13.3311" width="72.049" height="21.0499" filterUnits="userSpaceOnUse" color-interpolation-filters="sRGB">
<feFlood flood-opacity="0" result="BackgroundImageFix"/>
<feColorMatrix in="SourceAlpha" type="matrix" values="0 0 0 0 0 0 0 0 0 0 0 0 0 0 0 0 0 0 127 0" result="hardAlpha"/>
<feOffset dy="2.75949"/>
<feGaussianBlur stdDeviation="1.37975"/>
<feComposite in2="hardAlpha" operator="out"/>
<feColorMatrix type="matrix" values="0 0 0 0 1 0 0 0 0 1 0 0 0 0 1 0 0 0 0.25 0"/>
<feBlend mode="normal" in2="BackgroundImageFix" result="effect1_dropShadow_82_435"/>
<feBlend mode="normal" in="SourceGraphic" in2="effect1_dropShadow_82_435" result="shape"/>
</filter>
<filter id="filter1_d_82_435" x="2.7895e-05" y="2.47388" width="93.8901" height="21.0004" filterUnits="userSpaceOnUse" color-interpolation-filters="sRGB">
<feFlood flood-opacity="0" result="BackgroundImageFix"/>
<feColorMatrix in="SourceAlpha" type="matrix" values="0 0 0 0 0 0 0 0 0 0 0 0 0 0 0 0 0 0 127 0" result="hardAlpha"/>
<feOffset dy="2.75949"/>
<feGaussianBlur stdDeviation="1.37975"/>
<feComposite in2="hardAlpha" operator="out"/>
<feColorMatrix type="matrix" values="0 0 0 0 1 0 0 0 0 1 0 0 0 0 1 0 0 0 0.25 0"/>
<feBlend mode="normal" in2="BackgroundImageFix" result="effect1_dropShadow_82_435"/>
<feBlend mode="normal" in="SourceGraphic" in2="effect1_dropShadow_82_435" result="shape"/>
</filter>
</defs>
</svg>
