<svg width="521" height="521" viewBox="0 0 521 521" fill="none" xmlns="http://www.w3.org/2000/svg">
<path d="M204.232 270.936C204.232 273.28 204.232 273.28 202.408 273.28H156.3C164.896 247.23 174.014 219.617 182.35 192.525C182.35 194.609 182.35 196.693 184.173 198.777C185.997 200.861 186.518 207.374 187.56 211.542L192.249 226.13C192.249 231.079 195.114 235.768 196.677 240.718L201.627 255.566L204.232 270.936Z" fill="url(#paint0_linear_209_1658)"/>
<path d="M392.834 254.509C391.387 250.1 388.79 246.157 385.309 243.089C381.828 240.02 377.591 237.937 373.036 237.055C368.292 236.277 363.453 236.277 358.709 237.055C355.198 237.739 351.883 239.191 349 241.308C346.118 243.425 343.739 246.154 342.036 249.298C339.398 253.977 337.632 259.097 336.826 264.407H390.75C393.355 264.407 394.137 264.407 393.876 260.76C393.784 258.642 393.434 256.542 392.834 254.509ZM392.834 254.509C391.387 250.1 388.79 246.157 385.309 243.089C381.828 240.02 377.591 237.937 373.036 237.055C368.292 236.277 363.453 236.277 358.709 237.055C355.198 237.739 351.883 239.191 349 241.308C346.118 243.425 343.739 246.154 342.036 249.298C339.398 253.977 337.632 259.097 336.826 264.407H390.75C393.355 264.407 394.137 264.407 393.876 260.76C393.784 258.642 393.434 256.542 392.834 254.509ZM392.834 254.509C391.387 250.1 388.79 246.157 385.309 243.089C381.828 240.02 377.591 237.937 373.036 237.055C368.292 236.277 363.453 236.277 358.709 237.055C355.198 237.739 351.883 239.191 349 241.308C346.118 243.425 343.739 246.154 342.036 249.298C339.398 253.977 337.632 259.097 336.826 264.407H390.75C393.355 264.407 394.137 264.407 393.876 260.76C393.784 258.642 393.434 256.542 392.834 254.509ZM392.834 254.509C391.387 250.1 388.79 246.157 385.309 243.089C381.828 240.02 377.591 237.937 373.036 237.055C368.292 236.277 363.453 236.277 358.709 237.055C355.198 237.739 351.883 239.191 349 241.308C346.118 243.425 343.739 246.154 342.036 249.298C339.398 253.977 337.632 259.097 336.826 264.407H390.75C393.355 264.407 394.137 264.407 393.876 260.76C393.784 258.642 393.434 256.542 392.834 254.509ZM390.75 0H130.25C95.7055 0 62.576 13.7227 38.1493 38.1493C13.7227 62.576 0 95.7055 0 130.25V390.75C0 425.294 13.7227 458.424 38.1493 482.851C62.576 507.277 95.7055 521 130.25 521H390.75C425.294 521 458.424 507.277 482.851 482.851C507.277 458.424 521 425.294 521 390.75V130.25C521 95.7055 507.277 62.576 482.851 38.1493C458.424 13.7227 425.294 0 390.75 0ZM279.516 364.7H237.315C236.592 364.81 235.853 364.699 235.193 364.384C234.534 364.068 233.984 363.561 233.616 362.929C233.372 362.513 233.213 362.052 233.147 361.574C231.063 355.061 228.719 348.809 226.635 342.297C224.551 335.784 221.425 327.448 219.08 319.894C219.08 315.726 215.694 315.205 212.047 315.205H146.401C143.535 315.205 143.535 315.205 142.493 318.331C141.451 321.457 139.888 326.927 138.325 331.356L134.157 344.902L128.687 360.792C128.827 361.48 128.827 362.189 128.687 362.876C128.687 366.263 124.519 365.742 121.914 365.742H88.3095C84.402 365.742 83.0995 363.918 84.6625 360.271C86.2255 356.624 87.528 352.456 88.8305 348.809L94.301 332.137L104.461 303.482C107.326 295.667 109.931 287.592 112.536 279.516C115.141 271.441 117.485 265.71 120.09 258.677L125.561 242.265L135.199 216.215L143.014 193.291C145.619 185.997 148.225 178.703 150.569 171.148C150.935 167.598 150.935 164.019 150.569 160.468C150.569 154.997 150.569 154.997 156.039 154.997H203.19C207.358 154.997 207.097 154.998 208.4 158.905C209.702 162.813 213.089 171.669 215.173 177.921C217.257 184.173 219.08 188.862 220.904 194.072L227.156 211.005L233.408 229.24C236.013 236.273 238.618 243.047 240.962 250.08L247.735 268.836C249.819 275.088 252.164 281.34 254.509 287.852C256.853 294.365 257.634 297.491 259.458 302.18C261.281 306.869 263.105 312.6 265.189 317.81C267.273 323.02 268.575 327.709 270.399 332.659L277.953 353.759L281.079 362.876C282.121 362.616 281.34 364.7 279.516 364.7ZM435.816 286.55C435.938 288.894 435.938 291.239 435.816 293.584C435.816 295.928 431.909 296.71 429.564 296.71H337.608C338.546 305.254 342.297 313.225 348.288 319.373C359.143 326.04 371.464 329.953 384.177 330.77C396.889 331.587 409.609 329.284 421.228 324.062C423.312 324.062 424.355 324.062 424.355 326.146V355.582C424.355 360.271 422.531 360.792 418.623 362.355L409.245 365.221C406.267 366.099 403.215 366.71 400.128 367.044C393.616 367.044 387.103 368.868 380.591 369.128C374.078 369.389 371.733 369.128 367.305 369.128H364.7C359.49 369.128 354.019 369.128 349.07 367.305C334.7 364.435 321.586 357.15 311.558 346.465C305.197 339.888 300.234 332.089 296.97 323.541C294.335 317.302 292.581 310.726 291.76 304.003C291.386 296.367 291.386 288.716 291.76 281.079C292.151 271.675 293.922 262.376 296.97 253.466C299.532 246.052 303.127 239.036 307.651 232.627C313.586 223.683 321.64 216.345 331.095 211.265C335.177 208.904 339.431 206.906 343.86 205.274C348.669 204.13 353.54 203.26 358.448 202.669C362.876 202.408 367.305 202.408 371.734 202.669C378.263 202.773 384.689 203.642 391.01 205.274C396.741 206.889 402.212 209.147 407.422 212.047C415.445 216.648 422.098 223.301 426.699 231.324C429.304 236.013 431.388 240.702 433.472 245.391C434.583 248.708 435.452 252.095 436.077 255.551C438.406 265.728 438.671 276.268 436.858 286.55H435.816ZM371.994 238.357C367.25 237.58 362.411 237.58 357.666 238.357C354.156 239.041 350.841 240.494 347.958 242.61C345.076 244.727 342.697 247.456 340.994 250.601C338.356 255.28 336.59 260.399 335.784 265.71H390.75C393.355 265.71 394.137 265.71 393.876 262.063C393.66 259.746 393.134 257.468 392.313 255.29C391.028 250.802 388.562 246.742 385.17 243.534C381.779 240.326 377.588 238.088 373.036 237.055L371.994 238.357ZM391.792 255.811C390.345 251.402 387.748 247.46 384.267 244.391C380.786 241.323 376.549 239.24 371.994 238.357C367.25 237.58 362.411 237.58 357.666 238.357C354.156 239.041 350.841 240.494 347.958 242.61C345.076 244.727 342.697 247.456 340.994 250.601C338.356 255.28 336.59 260.399 335.784 265.71H390.75C393.355 265.71 394.137 265.71 393.876 262.063C393.876 259.493 393.529 256.975 392.834 254.509L391.792 255.811ZM391.792 255.811C390.345 251.402 387.748 247.46 384.267 244.391C380.786 241.323 376.549 239.24 371.994 238.357C367.25 237.58 362.411 237.58 357.666 238.357C354.156 239.041 350.841 240.494 347.958 242.61C345.076 244.727 342.697 247.456 340.994 250.601C338.356 255.28 336.59 260.399 335.784 265.71H390.75C393.355 265.71 394.137 265.71 393.876 262.063C393.876 259.493 393.529 256.975 392.834 254.509L391.792 255.811ZM391.792 255.811C390.345 251.402 387.748 247.46 384.267 244.391C380.786 241.323 376.549 239.24 371.994 238.357C367.25 237.58 362.411 237.58 357.666 238.357C354.156 239.041 350.841 240.494 347.958 242.61C345.076 244.727 342.697 247.456 340.994 250.601C338.356 255.28 336.59 260.399 335.784 265.71H390.75C393.355 265.71 394.137 265.71 393.876 262.063C393.876 259.493 393.529 256.975 392.834 254.509L391.792 255.811ZM391.792 255.811C390.345 251.402 387.748 247.46 384.267 244.391C380.786 241.323 376.549 239.24 371.994 238.357C367.25 237.58 362.411 237.58 357.666 238.357C354.156 239.041 350.841 240.494 347.958 242.61C345.076 244.727 342.697 247.456 340.994 250.601C338.356 255.28 336.59 260.399 335.784 265.71H390.75C393.355 265.71 394.137 265.71 393.876 262.063C393.876 259.493 393.529 256.975 392.834 254.509L391.792 255.811Z" fill="url(#paint1_linear_209_1658)"/>
<defs>
<linearGradient id="paint0_linear_209_1658" x1="180.266" y1="192.525" x2="180.266" y2="273.28" gradientUnits="userSpaceOnUse">
<stop/>
<stop offset="1" stop-color="#64278A"/>
</linearGradient>
<linearGradient id="paint1_linear_209_1658" x1="260.5" y1="0" x2="260.5" y2="521" gradientUnits="userSpaceOnUse">
<stop/>
<stop offset="1" stop-color="#64278A"/>
</linearGradient>
</defs>
</svg>
