<svg width="519" height="519" viewBox="0 0 519 519" fill="none" xmlns="http://www.w3.org/2000/svg">
<path d="M397.359 0H121.641C54.4604 0 0 54.4604 0 121.641V397.359C0 464.54 54.4604 519 121.641 519H397.359C464.54 519 519 464.54 519 397.359V121.641C519 54.4604 464.54 0 397.359 0Z" fill="url(#paint0_linear_209_1711)"/>
<mask id="mask0_209_1711" style="mask-type:luminance" maskUnits="userSpaceOnUse" x="123" y="56" width="272" height="407">
<path d="M123.668 56.7656H394.035V462.234H123.668V56.7656Z" fill="white"/>
</mask>
<g mask="url(#mask0_209_1711)">
<path d="M191.28 462.257C228.583 462.257 258.857 431.982 258.857 394.679V327.1H191.28C153.977 327.1 123.7 357.376 123.7 394.679C123.7 431.982 153.977 462.257 191.28 462.257Z" fill="#0ACF83"/>
<path d="M123.7 259.478C123.7 222.175 153.977 191.9 191.28 191.9H258.857V327.055H191.28C153.977 327.055 123.7 296.781 123.7 259.478Z" fill="#A259FF"/>
<path d="M123.7 124.343C123.7 87.04 153.977 56.7656 191.28 56.7656H258.857V191.923H191.28C153.977 191.923 123.7 161.646 123.7 124.343Z" fill="#F24E1E"/>
<path d="M258.852 56.7656H326.429C363.732 56.7656 394.009 87.04 394.009 124.343C394.009 161.646 363.732 191.923 326.429 191.923H258.852V56.7656Z" fill="#FF7262"/>
<path d="M394.009 259.478C394.009 296.781 363.732 327.055 326.429 327.055C289.126 327.055 258.852 296.781 258.852 259.478C258.852 222.175 289.126 191.9 326.429 191.9C363.732 191.9 394.009 222.175 394.009 259.478Z" fill="#1ABCFE"/>
</g>
<defs>
<linearGradient id="paint0_linear_209_1711" x1="259.5" y1="0" x2="259.5" y2="519" gradientUnits="userSpaceOnUse">
<stop/>
<stop offset="1" stop-color="#465170"/>
</linearGradient>
</defs>
</svg>
