<svg width="521" height="521" viewBox="0 0 521 521" fill="none" xmlns="http://www.w3.org/2000/svg">
<path d="M219.076 194.865C228.194 224.562 237.572 254.259 246.95 284.477H191.724C201.102 254.259 209.959 224.562 219.076 194.865Z" fill="url(#paint0_linear_209_1674)"/>
<path d="M390.75 0H130.25C95.7055 0 62.576 13.7227 38.1493 38.1493C13.7227 62.576 0 95.7055 0 130.25V390.75C0 425.294 13.7227 458.424 38.1493 482.851C62.576 507.277 95.7055 521 130.25 521H390.75C425.294 521 458.424 507.277 482.851 482.851C507.277 458.424 521 425.294 521 390.75V130.25C521 95.7055 507.277 62.576 482.851 38.1493C458.424 13.7227 425.294 0 390.75 0ZM325.364 385.019H284.726C283.106 385.244 281.461 384.824 280.146 383.85C278.831 382.876 277.95 381.425 277.693 379.809C272.743 365.221 267.533 350.633 262.584 335.784C262.428 334.854 262.086 333.963 261.579 333.167C261.072 332.371 260.41 331.685 259.632 331.151C258.854 330.616 257.976 330.243 257.051 330.055C256.127 329.866 255.173 329.866 254.248 330.053H184.955C183.993 329.826 182.993 329.805 182.022 329.99C181.051 330.175 180.129 330.563 179.318 331.129C178.507 331.694 177.824 332.424 177.314 333.271C176.804 334.118 176.479 335.064 176.359 336.045C171.93 350.633 166.98 364.7 162.552 379.288C162.428 380.208 162.116 381.093 161.636 381.888C161.155 382.683 160.517 383.37 159.759 383.908C159.002 384.445 158.142 384.821 157.233 385.013C156.325 385.204 155.386 385.206 154.476 385.019H118.788C112.536 385.019 112.015 385.019 114.099 378.507L170.367 216.215C175.577 201.366 180.787 186.518 185.476 171.669C186.764 167.266 187.465 162.711 187.56 158.123C187.56 152.653 189.644 151.351 194.594 151.611H244.349C247.996 151.611 249.82 151.611 251.122 156.561L315.205 337.087C320.155 351.154 325.104 364.961 329.793 378.767C331.877 384.498 331.616 385.019 325.364 385.019ZM405.077 380.591C405.077 385.019 403.254 386.321 399.086 386.321H361.574C356.364 386.321 355.061 384.237 355.061 379.548V215.954C355.061 210.744 356.624 208.661 362.095 208.921H398.825C402.993 208.921 405.077 208.921 405.077 214.652C404.904 269.878 404.904 325.191 405.077 380.591ZM379.027 190.426C375.295 190.663 371.555 190.093 368.062 188.756C364.569 187.418 361.405 185.344 358.785 182.675C356.165 180.006 354.151 176.804 352.879 173.286C351.607 169.769 351.108 166.019 351.414 162.291C351.448 158.586 352.219 154.925 353.684 151.522C355.149 148.118 357.278 145.041 359.946 142.47C362.614 139.899 365.768 137.886 369.223 136.548C372.678 135.21 376.366 134.574 380.069 134.678C383.673 134.667 387.24 135.403 390.544 136.841C393.849 138.278 396.819 140.386 399.267 143.03C401.716 145.674 403.589 148.797 404.768 152.203C405.948 155.608 406.408 159.22 406.119 162.812C406.333 166.363 405.817 169.919 404.604 173.262C403.391 176.605 401.506 179.665 399.065 182.252C396.624 184.839 393.68 186.898 390.413 188.304C387.146 189.71 383.626 190.432 380.069 190.426H379.027Z" fill="url(#paint1_linear_209_1674)"/>
<path d="M246.95 284.477H191.724C201.102 254.259 209.959 224.562 217.774 194.865C228.194 224.562 237.572 254.259 246.95 284.477Z" fill="url(#paint2_linear_209_1674)"/>
<defs>
<linearGradient id="paint0_linear_209_1674" x1="219.337" y1="194.865" x2="219.337" y2="284.477" gradientUnits="userSpaceOnUse">
<stop/>
<stop offset="1" stop-color="#AA4A1B"/>
</linearGradient>
<linearGradient id="paint1_linear_209_1674" x1="260.5" y1="0" x2="260.5" y2="521" gradientUnits="userSpaceOnUse">
<stop/>
<stop offset="1" stop-color="#AA4A1B"/>
</linearGradient>
<linearGradient id="paint2_linear_209_1674" x1="219.337" y1="194.865" x2="219.337" y2="284.477" gradientUnits="userSpaceOnUse">
<stop/>
<stop offset="1" stop-color="#AA4A1B"/>
</linearGradient>
</defs>
</svg>
