<svg width="514" height="515" viewBox="0 0 514 515" fill="none" xmlns="http://www.w3.org/2000/svg">
<path d="M510.634 20.3652L451.589 440.669L450.038 451.706L439.445 455.173L262.309 513.146L256.748 514.966L251.187 513.146L74.0498 455.173L63.457 451.706L61.9062 440.669L2.86133 20.3652L0 0H513.495L510.634 20.3652ZM315.793 102.225C304.061 102.225 292.686 106.652 284.044 114.728L283.217 115.521C274.46 124.118 269.433 135.903 269.433 148.316V235.276C269.433 247.689 274.461 259.474 283.217 268.071C291.954 276.649 303.683 281.368 315.793 281.368H338.296L331.867 325.608L293.499 335.027L262.811 342.56L277.876 403.936L308.563 396.403L367.609 381.909C380.107 378.841 389.496 368.501 391.347 355.766L403.688 270.835C403.689 270.822 403.691 270.809 403.693 270.796C404.616 264.386 404.17 257.863 402.392 251.649L402.216 251.049L402.031 250.451C400.086 244.292 396.868 238.633 392.615 233.824C388.364 229.018 383.175 225.17 377.402 222.492L376.842 222.237L376.278 221.989C370.44 219.467 364.152 218.171 357.809 218.17H332.63V165.422H421.198V102.225H315.793ZM92.2959 102.225V165.422H180.864V315.001L167.342 308.363L138.978 294.438L111.127 351.169L139.492 365.094L198.538 394.08C208.332 398.888 219.913 398.303 229.173 392.534C238.433 386.764 244.062 376.625 244.062 365.715V133.823C244.062 116.372 229.914 102.225 212.463 102.225H92.2959Z" fill="url(#paint0_linear_209_1663)"/>
<defs>
<linearGradient id="paint0_linear_209_1663" x1="256.748" y1="0" x2="256.748" y2="514.966" gradientUnits="userSpaceOnUse">
<stop/>
<stop offset="1" stop-color="#8E7200"/>
</linearGradient>
</defs>
</svg>
