<svg width="520" height="520" viewBox="0 0 520 520" fill="none" xmlns="http://www.w3.org/2000/svg">
<path fill-rule="evenodd" clip-rule="evenodd" d="M111.881 8.15533C210.038 -2.71844 309.097 -2.71844 407.254 8.15533C460.879 14.1419 504.112 56.3582 510.409 110.181C522.041 209.712 522.041 310.259 510.409 409.79C504.112 463.612 460.879 505.828 407.282 511.843C309.115 522.719 210.048 522.719 111.881 511.843C58.2561 505.828 15.0232 463.612 8.72603 409.818C-2.90868 310.278 -2.90868 209.721 8.72603 110.181C15.0232 56.3582 58.2561 14.1419 111.881 8.15533ZM280.125 358.819H155.876V149.46H194.083V326.825H280.125V358.819ZM333.298 358.819H295.091V256.314C295.091 235.813 294.781 221.214 293.849 207.546H327.085L328.328 236.434H329.57C337.025 215.001 354.703 204.13 370.883 204.13C374.611 204.13 376.785 204.44 379.891 205.061V241.094C376.214 240.308 372.468 239.892 368.709 239.851C350.354 239.851 337.929 251.655 334.54 268.739C333.767 272.627 333.351 276.578 333.298 280.543V358.819Z" fill="black"/>
<path fill-rule="evenodd" clip-rule="evenodd" d="M111.881 8.15533C210.038 -2.71844 309.097 -2.71844 407.254 8.15533C460.879 14.1419 504.112 56.3582 510.409 110.181C522.041 209.712 522.041 310.259 510.409 409.79C504.112 463.612 460.879 505.828 407.282 511.843C309.115 522.719 210.048 522.719 111.881 511.843C58.2561 505.828 15.0232 463.612 8.72603 409.818C-2.90868 310.278 -2.90868 209.721 8.72603 110.181C15.0232 56.3582 58.2561 14.1419 111.881 8.15533ZM280.125 358.819H155.876V149.46H194.083V326.825H280.125V358.819ZM333.298 358.819H295.091V256.314C295.091 235.813 294.781 221.214 293.849 207.546H327.085L328.328 236.434H329.57C337.025 215.001 354.703 204.13 370.883 204.13C374.611 204.13 376.785 204.44 379.891 205.061V241.094C376.214 240.308 372.468 239.892 368.709 239.851C350.354 239.851 337.929 251.655 334.54 268.739C333.767 272.627 333.351 276.578 333.298 280.543V358.819Z" fill="url(#paint0_linear_209_1659)"/>
<defs>
<linearGradient id="paint0_linear_209_1659" x1="259.567" y1="0" x2="259.567" y2="520" gradientUnits="userSpaceOnUse">
<stop/>
<stop offset="1" stop-color="#21567C"/>
</linearGradient>
</defs>
</svg>
