<svg width="26" height="26" viewBox="0 0 26 26" fill="none" xmlns="http://www.w3.org/2000/svg">
<path d="M22.7556 0C23.5099 0 24.2334 0.299682 24.7669 0.833118C25.3003 1.36656 25.6 2.09005 25.6 2.84444V22.7556C25.6 23.5099 25.3003 24.2334 24.7669 24.7669C24.2334 25.3003 23.5099 25.6 22.7556 25.6H2.84444C2.09005 25.6 1.36656 25.3003 0.833118 24.7669C0.299682 24.2334 0 23.5099 0 22.7556V2.84444C0 2.09005 0.299682 1.36656 0.833118 0.833118C1.36656 0.299682 2.09005 0 2.84444 0H22.7556ZM22.0444 22.0444V14.5067C22.0444 13.277 21.556 12.0977 20.6865 11.2282C19.817 10.3587 18.6377 9.87022 17.408 9.87022C16.1991 9.87022 14.7911 10.6098 14.1084 11.7191V10.1404H10.1404V22.0444H14.1084V15.0329C14.1084 13.9378 14.9902 13.0418 16.0853 13.0418C16.6134 13.0418 17.1199 13.2516 17.4933 13.625C17.8667 13.9984 18.0764 14.5048 18.0764 15.0329V22.0444H22.0444ZM5.51822 7.90756C6.15191 7.90756 6.75965 7.65582 7.20774 7.20774C7.65582 6.75965 7.90756 6.15191 7.90756 5.51822C7.90756 4.19556 6.84089 3.11467 5.51822 3.11467C4.88076 3.11467 4.26941 3.3679 3.81865 3.81865C3.3679 4.26941 3.11467 4.88076 3.11467 5.51822C3.11467 6.84089 4.19556 7.90756 5.51822 7.90756ZM7.49511 22.0444V10.1404H3.55556V22.0444H7.49511Z" fill="black"/>
</svg>
