<svg width="26" height="21" viewBox="0 0 26 21" fill="none" xmlns="http://www.w3.org/2000/svg">
<path d="M23.04 0H2.56C1.152 0 0.0128 1.152 0.0128 2.56L0 17.92C0 19.328 1.152 20.48 2.56 20.48H23.04C24.448 20.48 25.6 19.328 25.6 17.92V2.56C25.6 1.152 24.448 0 23.04 0ZM22.528 5.44L13.4784 11.0976C13.0688 11.3536 12.5312 11.3536 12.1216 11.0976L3.072 5.44C2.94365 5.36795 2.83126 5.27061 2.74162 5.15386C2.65198 5.03712 2.58696 4.9034 2.5505 4.76079C2.51403 4.61819 2.50688 4.46968 2.52948 4.32423C2.55208 4.17879 2.60395 4.03944 2.68196 3.91463C2.75997 3.78981 2.86249 3.68212 2.98333 3.59807C3.10416 3.51403 3.2408 3.45537 3.38495 3.42566C3.52911 3.39595 3.6778 3.3958 3.82202 3.42521C3.96624 3.45463 4.10299 3.513 4.224 3.5968L12.8 8.96L21.376 3.5968C21.497 3.513 21.6338 3.45463 21.778 3.42521C21.9222 3.3958 22.0709 3.39595 22.215 3.42566C22.3592 3.45537 22.4958 3.51403 22.6167 3.59807C22.7375 3.68212 22.84 3.78981 22.918 3.91463C22.996 4.03944 23.0479 4.17879 23.0705 4.32423C23.0931 4.46968 23.086 4.61819 23.0495 4.76079C23.013 4.9034 22.948 5.03712 22.8584 5.15386C22.7687 5.27061 22.6563 5.36795 22.528 5.44Z" fill="black"/>
</svg>
