<svg width="519" height="519" viewBox="0 0 519 519" fill="none" xmlns="http://www.w3.org/2000/svg">
<path d="M219.29 220.043C219.683 227.923 217.301 235.69 212.56 241.996C207.819 248.302 201.018 252.746 193.34 254.557C179.794 258.557 165.666 260.225 151.56 259.487C147.927 259.487 147.668 257.152 147.668 254.557V188.384C147.668 186.568 149.484 183.454 150.522 183.454C165.367 181.792 180.388 182.758 194.897 186.308C202.199 188.31 208.598 192.745 213.034 198.88C217.47 205.016 219.678 212.482 219.29 220.043Z" fill="url(#paint0_linear_209_1694)"/>
<path d="M389.25 0H129.75C95.3382 0 62.3357 13.67 38.0029 38.0029C13.67 62.3357 0 95.3382 0 129.75V389.25C0 423.662 13.67 456.664 38.0029 480.997C62.3357 505.33 95.3382 519 129.75 519H389.25C423.662 519 456.664 505.33 480.997 480.997C505.33 456.664 519 423.662 519 389.25V129.75C519 95.3382 505.33 62.3357 480.997 38.0029C456.664 13.67 423.662 0 389.25 0ZM233.55 285.45C220.453 293.768 205.444 298.592 189.954 299.463H155.181C147.915 299.463 147.915 299.463 147.915 306.47V366.673C147.915 371.863 146.358 373.42 141.168 373.42H106.914C101.984 373.42 100.686 371.604 100.686 366.933V148.175C100.686 142.985 100.686 141.427 107.174 141.427H188.397C203.223 141.829 217.697 146.029 230.436 153.624C241.437 159.823 250.597 168.83 256.98 179.726C263.362 190.622 266.739 203.017 266.766 215.645C268.267 229.218 265.954 242.94 260.086 255.272C254.219 267.603 245.029 278.053 233.55 285.45ZM387.174 371.085C364.607 379.877 339.898 381.597 316.33 376.016C309.255 374.459 302.335 372.383 295.571 369.788C294.527 369.298 293.61 368.576 292.89 367.676C292.171 366.776 291.667 365.723 291.418 364.597V325.413C299.722 328.527 307.508 332.16 315.552 334.755C329.034 339.064 343.308 340.305 357.332 338.388C360.134 337.869 362.816 337.004 365.376 335.793C366.897 335.127 368.219 334.078 369.213 332.749C370.208 331.419 370.84 329.854 371.05 328.207C371.259 326.56 371.037 324.887 370.407 323.351C369.776 321.816 368.758 320.469 367.452 319.445C361.516 315.335 355.167 311.856 348.509 309.065C337.869 303.875 326.97 299.723 316.85 293.754C307.712 289.309 300.251 282.034 295.576 273.012C290.902 263.989 289.261 253.699 290.9 243.671C292.219 234.018 296.229 224.933 302.47 217.452C308.711 209.972 316.932 204.4 326.192 201.372C342.881 195.728 360.689 194.215 378.092 196.961C386.396 196.961 394.44 200.075 402.744 201.632C407.156 201.632 408.713 205.265 408.453 209.676V240.038C408.453 245.747 407.156 246.266 401.966 244.19C385.758 236.686 367.842 233.64 350.066 235.366C347.547 235.659 345.093 236.361 342.8 237.442C341.243 238.054 339.873 239.061 338.825 240.365C337.777 241.668 337.088 243.223 336.826 244.875C336.564 246.526 336.738 248.218 337.33 249.782C337.923 251.346 338.914 252.728 340.205 253.791C347.713 258.791 355.584 263.116 363.819 266.766C373.68 271.697 384.06 275.589 393.662 281.039C402.374 285.003 409.591 291.649 414.259 300.005C418.928 308.362 420.803 317.991 419.612 327.489C418.791 336.964 415.277 346.005 409.483 353.547C403.689 361.088 395.858 366.813 386.915 370.047L387.174 371.085Z" fill="url(#paint1_linear_209_1694)"/>
<defs>
<linearGradient id="paint0_linear_209_1694" x1="183.501" y1="182.664" x2="183.501" y2="259.657" gradientUnits="userSpaceOnUse">
<stop/>
<stop offset="1" stop-color="#27618A"/>
</linearGradient>
<linearGradient id="paint1_linear_209_1694" x1="259.5" y1="0" x2="259.5" y2="519" gradientUnits="userSpaceOnUse">
<stop/>
<stop offset="1" stop-color="#27618A"/>
</linearGradient>
</defs>
</svg>
